<?xml version="1.0" encoding="UTF-8" standalone="no"?>
<svg xmlns="http://www.w3.org/2000/svg" width="1024" height="1024" viewBox="0 0 1024 1024">
  <!-- Transparent background (no rect) -->
  <g id="dots">
    <circle cx="512.000" cy="512.000" r="8.0" fill="#FFFFFF" />
    <circle cx="506.101" cy="517.404" r="8.0" fill="#FFFFFF" />
    <circle cx="512.989" cy="500.730" r="8.0" fill="#FFFFFF" />
    <circle cx="520.431" cy="522.996" r="8.0" fill="#FFFFFF" />
    <circle cx="496.245" cy="509.213" r="8.0" fill="#FFFFFF" />
    <circle cx="527.094" cy="502.399" r="8.0" fill="#FFFFFF" />
    <circle cx="506.913" cy="530.924" r="8.0" fill="#FFFFFF" />
    <circle cx="502.244" cy="493.216" r="8.0" fill="#FFFFFF" />
    <circle cx="533.254" cy="519.762" r="8.0" fill="#FFFFFF" />
    <circle cx="489.816" cy="521.157" r="8.0" fill="#FFFFFF" />
    <circle cx="522.723" cy="489.087" r="8.0" fill="#FFFFFF" />
    <circle cx="519.941" cy="537.317" r="8.0" fill="#FFFFFF" />
    <circle cx="488.023" cy="498.105" r="8.0" fill="#FFFFFF" />
    <circle cx="540.172" cy="505.807" r="8.0" fill="#FFFFFF" />
    <circle cx="494.785" cy="536.487" r="8.0" fill="#FFFFFF" />
    <circle cx="508.018" cy="481.273" r="8.0" fill="#FFFFFF" />
    <circle cx="536.469" cy="532.622" r="8.0" fill="#FFFFFF" />
    <circle cx="479.043" cy="513.363" r="8.0" fill="#FFFFFF" />
    <circle cx="536.058" cy="488.059" r="8.0" fill="#FFFFFF" />
    <circle cx="510.389" cy="546.834" r="8.0" fill="#FFFFFF" />
    <circle cx="489.077" cy="484.531" r="8.0" fill="#FFFFFF" />
    <circle cx="548.333" cy="516.889" r="8.0" fill="#FFFFFF" />
    <circle cx="481.199" cy="533.431" r="8.0" fill="#FFFFFF" />
    <circle cx="520.421" cy="474.569" r="8.0" fill="#FFFFFF" />
    <circle cx="531.485" cy="546.005" r="8.0" fill="#FFFFFF" />
    <circle cx="473.892" cy="499.843" r="8.0" fill="#FFFFFF" />
    <circle cx="549.031" cy="494.891" r="8.0" fill="#FFFFFF" />
    <circle cx="495.952" cy="550.346" r="8.0" fill="#FFFFFF" />
    <circle cx="497.673" cy="472.166" r="8.0" fill="#FFFFFF" />
    <circle cx="550.135" cy="532.043" r="8.0" fill="#FFFFFF" />
    <circle cx="469.629" cy="523.169" r="8.0" fill="#FFFFFF" />
    <circle cx="536.090" cy="474.534" r="8.0" fill="#FFFFFF" />
    <circle cx="519.665" cy="556.601" r="8.0" fill="#FFFFFF" />
    <circle cx="475.666" cy="483.861" r="8.0" fill="#FFFFFF" />
    <circle cx="558.488" cy="508.149" r="8.0" fill="#FFFFFF" />
    <circle cx="479.860" cy="546.742" r="8.0" fill="#FFFFFF" />
    <circle cx="512.234" cy="464.001" r="8.0" fill="#FFFFFF" />
    <circle cx="544.695" cy="548.042" r="8.0" fill="#FFFFFF" />
    <circle cx="462.895" cy="507.449" r="8.0" fill="#FFFFFF" />
    <circle cx="551.796" cy="481.796" r="8.0" fill="#FFFFFF" />
    <circle cx="502.944" cy="561.779" r="8.0" fill="#FFFFFF" />
    <circle cx="484.717" cy="468.645" r="8.0" fill="#FFFFFF" />
    <circle cx="562.002" cy="525.704" r="8.0" fill="#FFFFFF" />
    <circle cx="465.327" cy="535.952" r="8.0" fill="#FFFFFF" />
    <circle cx="530.447" cy="462.243" r="8.0" fill="#FFFFFF" />
    <circle cx="532.234" cy="561.705" r="8.0" fill="#FFFFFF" />
    <circle cx="462.969" cy="488.763" r="8.0" fill="#FFFFFF" />
    <circle cx="564.411" cy="495.841" r="8.0" fill="#FFFFFF" />
    <circle cx="483.976" cy="559.819" r="8.0" fill="#FFFFFF" />
    <circle cx="500.243" cy="457.248" r="8.0" fill="#FFFFFF" />
    <circle cx="558.117" cy="544.760" r="8.0" fill="#FFFFFF" />
    <circle cx="455.307" cy="519.066" r="8.0" fill="#FFFFFF" />
    <circle cx="549.392" cy="468.070" r="8.0" fill="#FFFFFF" />
    <circle cx="514.122" cy="570.202" r="8.0" fill="#FFFFFF" />
    <circle cx="470.736" cy="470.128" r="8.0" fill="#FFFFFF" />
    <circle cx="571.252" cy="515.030" r="8.0" fill="#FFFFFF" />
    <circle cx="465.849" cy="550.132" r="8.0" fill="#FFFFFF" />
    <circle cx="520.346" cy="452.181" r="8.0" fill="#FFFFFF" />
    <circle cx="546.552" cy="562.181" r="8.0" fill="#FFFFFF" />
    <circle cx="452.116" cy="498.221" r="8.0" fill="#FFFFFF" />
    <circle cx="565.916" cy="481.453" r="8.0" fill="#FFFFFF" />
    <circle cx="492.719" cy="571.433" r="8.0" fill="#FFFFFF" />
    <circle cx="485.859" cy="454.688" r="8.0" fill="#FFFFFF" />
    <circle cx="570.455" cy="536.800" r="8.0" fill="#FFFFFF" />
    <circle cx="451.672" cy="533.367" r="8.0" fill="#FFFFFF" />
    <circle cx="542.285" cy="455.054" r="8.0" fill="#FFFFFF" />
    <circle cx="528.259" cy="574.926" r="8.0" fill="#FFFFFF" />
    <circle cx="457.094" cy="476.316" r="8.0" fill="#FFFFFF" />
    <circle cx="577.070" cy="501.144" r="8.0" fill="#FFFFFF" />
    <circle cx="471.055" cy="564.340" r="8.0" fill="#FFFFFF" />
    <circle cx="506.799" cy="445.270" r="8.0" fill="#FFFFFF" />
    <circle cx="561.259" cy="558.017" r="8.0" fill="#FFFFFF" />
    <circle cx="444.121" cy="511.338" r="8.0" fill="#FFFFFF" />
    <circle cx="562.849" cy="466.323" r="8.0" fill="#FFFFFF" />
    <circle cx="505.315" cy="580.493" r="8.0" fill="#FFFFFF" />
    <circle cx="470.385" cy="456.609" r="8.0" fill="#FFFFFF" />
    <circle cx="580.554" cy="524.817" r="8.0" fill="#FFFFFF" />
    <circle cx="452.404" cy="549.098" r="8.0" fill="#FFFFFF" />
    <circle cx="531.007" cy="443.950" r="8.0" fill="#FFFFFF" />
    <circle cx="544.156" cy="575.419" r="8.0" fill="#FFFFFF" />
    <circle cx="445.030" cy="486.800" r="8.0" fill="#FFFFFF" />
    <circle cx="578.818" cy="485.179" r="8.0" fill="#FFFFFF" />
    <circle cx="480.657" cy="577.311" r="8.0" fill="#FFFFFF" />
    <circle cx="490.867" cy="442.248" r="8.0" fill="#FFFFFF" />
    <circle cx="575.077" cy="549.381" r="8.0" fill="#FFFFFF" />
    <circle cx="439.813" cy="527.133" r="8.0" fill="#FFFFFF" />
    <circle cx="555.258" cy="451.728" r="8.0" fill="#FFFFFF" />
    <circle cx="520.867" cy="586.090" r="8.0" fill="#FFFFFF" />
    <circle cx="455.090" cy="463.079" r="8.0" fill="#FFFFFF" />
    <circle cx="587.434" cy="509.618" r="8.0" fill="#FFFFFF" />
    <circle cx="457.684" cy="565.007" r="8.0" fill="#FFFFFF" />
    <circle cx="516.269" cy="435.804" r="8.0" fill="#FFFFFF" />
    <circle cx="560.587" cy="571.391" r="8.0" fill="#FFFFFF" />
    <circle cx="435.644" cy="500.967" r="8.0" fill="#FFFFFF" />
    <circle cx="576.097" cy="468.325" r="8.0" fill="#FFFFFF" />
    <circle cx="494.145" cy="587.902" r="8.0" fill="#FFFFFF" />
    <circle cx="473.695" cy="443.614" r="8.0" fill="#FFFFFF" />
    <circle cx="586.826" cy="536.679" r="8.0" fill="#FFFFFF" />
    <circle cx="439.786" cy="544.514" r="8.0" fill="#FFFFFF" />
    <circle cx="543.445" cy="438.875" r="8.0" fill="#FFFFFF" />
    <circle cx="538.340" cy="587.539" r="8.0" fill="#FFFFFF" />
    <circle cx="441.200" cy="473.903" r="8.0" fill="#FFFFFF" />
    <circle cx="590.325" cy="492.169" r="8.0" fill="#FFFFFF" />
    <circle cx="467.425" cy="579.860" r="8.0" fill="#FFFFFF" />
    <circle cx="498.967" cy="431.463" r="8.0" fill="#FFFFFF" />
    <circle cx="576.319" cy="562.824" r="8.0" fill="#FFFFFF" />
    <circle cx="429.854" cy="517.999" r="8.0" fill="#FFFFFF" />
    <circle cx="568.786" cy="451.805" r="8.0" fill="#FFFFFF" />
    <circle cx="510.783" cy="595.130" r="8.0" fill="#FFFFFF" />
    <circle cx="456.489" cy="449.594" r="8.0" fill="#FFFFFF" />
    <circle cx="595.467" cy="520.558" r="8.0" fill="#FFFFFF" />
    <circle cx="444.368" cy="562.298" r="8.0" fill="#FFFFFF" />
    <circle cx="527.965" cy="428.855" r="8.0" fill="#FFFFFF" />
    <circle cx="556.589" cy="584.414" r="8.0" fill="#FFFFFF" />
    <circle cx="429.845" cy="488.621" r="8.0" fill="#FFFFFF" />
    <circle cx="588.705" cy="473.577" r="8.0" fill="#FFFFFF" />
    <circle cx="481.262" cy="592.493" r="8.0" fill="#FFFFFF" />
    <circle cx="480.157" cy="431.539" r="8.0" fill="#FFFFFF" />
    <circle cx="590.163" cy="549.981" r="8.0" fill="#FFFFFF" />
    <circle cx="428.357" cy="536.897" r="8.0" fill="#FFFFFF" />
    <circle cx="557.046" cy="436.828" r="8.0" fill="#FFFFFF" />
    <circle cx="529.635" cy="598.215" r="8.0" fill="#FFFFFF" />
    <circle cx="440.465" cy="460.127" r="8.0" fill="#FFFFFF" />
    <circle cx="600.146" cy="501.887" r="8.0" fill="#FFFFFF" />
    <circle cx="453.599" cy="579.271" r="8.0" fill="#FFFFFF" />
    <circle cx="509.613" cy="422.589" r="8.0" fill="#FFFFFF" />
    <circle cx="574.405" cy="576.573" r="8.0" fill="#FFFFFF" />
    <circle cx="422.011" cy="506.518" r="8.0" fill="#FFFFFF" />
    <circle cx="582.333" cy="455.033" r="8.0" fill="#FFFFFF" />
    <circle cx="498.567" cy="601.864" r="8.0" fill="#FFFFFF" />
    <circle cx="461.006" cy="436.372" r="8.0" fill="#FFFFFF" />
    <circle cx="601.028" cy="533.402" r="8.0" fill="#FFFFFF" />
    <circle cx="431.592" cy="556.525" r="8.0" fill="#FFFFFF" />
    <circle cx="541.324" cy="424.524" r="8.0" fill="#FFFFFF" />
    <circle cx="549.607" cy="596.627" r="8.0" fill="#FFFFFF" />
    <circle cx="426.789" cy="474.864" r="8.0" fill="#FFFFFF" />
    <circle cx="600.242" cy="481.712" r="8.0" fill="#FFFFFF" />
    <circle cx="467.229" cy="594.241" r="8.0" fill="#FFFFFF" />
    <circle cx="489.378" cy="420.785" r="8.0" fill="#FFFFFF" />
    <circle cx="590.579" cy="564.167" r="8.0" fill="#FFFFFF" />
    <circle cx="418.486" cy="526.666" r="8.0" fill="#FFFFFF" />
    <circle cx="571.258" cy="437.754" r="8.0" fill="#FFFFFF" />
    <circle cx="518.480" cy="607.111" r="8.0" fill="#FFFFFF" />
    <circle cx="442.733" cy="446.014" r="8.0" fill="#FFFFFF" />
    <circle cx="607.982" cy="513.873" r="8.0" fill="#FFFFFF" />
    <circle cx="439.711" cy="575.673" r="8.0" fill="#FFFFFF" />
    <circle cx="522.328" cy="415.889" r="8.0" fill="#FFFFFF" />
    <circle cx="569.502" cy="590.112" r="8.0" fill="#FFFFFF" />
    <circle cx="416.513" cy="493.181" r="8.0" fill="#FFFFFF" />
    <circle cx="595.402" cy="461.205" r="8.0" fill="#FFFFFF" />
    <circle cx="484.723" cy="606.106" r="8.0" fill="#FFFFFF" />
    <circle cx="468.401" cy="423.891" r="8.0" fill="#FFFFFF" />
    <circle cx="603.968" cy="547.635" r="8.0" fill="#FFFFFF" />
    <circle cx="419.813" cy="547.965" r="8.0" fill="#FFFFFF" />
    <circle cx="555.825" cy="422.919" r="8.0" fill="#FFFFFF" />
    <circle cx="539.948" cy="607.598" r="8.0" fill="#FFFFFF" />
    <circle cx="426.542" cy="460.222" r="8.0" fill="#FFFFFF" />
    <circle cx="610.303" cy="492.391" r="8.0" fill="#FFFFFF" />
    <circle cx="452.572" cy="593.119" r="8.0" fill="#FFFFFF" />
    <circle cx="500.991" cy="411.726" r="8.0" fill="#FFFFFF" />
    <circle cx="588.090" cy="578.711" r="8.0" fill="#FFFFFF" />
    <circle cx="410.516" cy="514.214" r="8.0" fill="#FFFFFF" />
    <circle cx="585.563" cy="441.598" r="8.0" fill="#FFFFFF" />
    <circle cx="505.292" cy="613.917" r="8.0" fill="#FFFFFF" />
    <circle cx="447.907" cy="432.075" r="8.0" fill="#FFFFFF" />
    <circle cx="613.557" cy="527.688" r="8.0" fill="#FFFFFF" />
    <circle cx="426.259" cy="569.206" r="8.0" fill="#FFFFFF" />
    <circle cx="536.654" cy="411.600" r="8.0" fill="#FFFFFF" />
    <circle cx="561.788" cy="602.957" r="8.0" fill="#FFFFFF" />
    <circle cx="413.556" cy="478.464" r="8.0" fill="#FFFFFF" />
    <circle cx="607.525" cy="470.107" r="8.0" fill="#FFFFFF" />
    <circle cx="469.737" cy="607.697" r="8.0" fill="#FFFFFF" />
    <circle cx="478.423" cy="412.599" r="8.0" fill="#FFFFFF" />
    <circle cx="604.170" cy="562.761" r="8.0" fill="#FFFFFF" />
    <circle cx="409.453" cy="536.902" r="8.0" fill="#FFFFFF" />
    <circle cx="570.963" cy="424.117" r="8.0" fill="#FFFFFF" />
    <circle cx="527.932" cy="616.929" r="8.0" fill="#FFFFFF" />
    <circle cx="429.139" cy="445.201" r="8.0" fill="#FFFFFF" />
    <circle cx="618.521" cy="505.265" r="8.0" fill="#FFFFFF" />
    <circle cx="437.797" cy="589.136" r="8.0" fill="#FFFFFF" />
    <circle cx="514.618" cy="404.701" r="8.0" fill="#FFFFFF" />
    <circle cx="582.745" cy="593.112" r="8.0" fill="#FFFFFF" />
    <circle cx="404.749" cy="499.945" r="8.0" fill="#FFFFFF" />
    <circle cx="599.465" cy="448.268" r="8.0" fill="#FFFFFF" />
    <circle cx="490.498" cy="618.366" r="8.0" fill="#FFFFFF" />
    <circle cx="455.854" cy="418.792" r="8.0" fill="#FFFFFF" />
    <circle cx="616.643" cy="542.886" r="8.0" fill="#FFFFFF" />
    <circle cx="413.714" cy="560.040" r="8.0" fill="#FFFFFF" />
    <circle cx="552.130" cy="409.914" r="8.0" fill="#FFFFFF" />
    <circle cx="551.472" cy="614.654" r="8.0" fill="#FFFFFF" />
    <circle cx="413.292" cy="462.839" r="8.0" fill="#FFFFFF" />
    <circle cx="618.270" cy="481.493" r="8.0" fill="#FFFFFF" />
    <circle cx="454.096" cy="606.526" r="8.0" fill="#FFFFFF" />
    <circle cx="490.791" cy="402.903" r="8.0" fill="#FFFFFF" />
    <circle cx="601.564" cy="578.289" r="8.0" fill="#FFFFFF" />
    <circle cx="400.895" cy="523.650" r="8.0" fill="#FFFFFF" />
    <circle cx="586.245" cy="428.145" r="8.0" fill="#FFFFFF" />
    <circle cx="513.902" cy="624.269" r="8.0" fill="#FFFFFF" />
    <circle cx="434.565" cy="430.294" r="8.0" fill="#FFFFFF" />
    <circle cx="624.573" cy="519.961" r="8.0" fill="#FFFFFF" />
    <circle cx="423.393" cy="582.348" r="8.0" fill="#FFFFFF" />
    <circle cx="529.861" cy="399.996" r="8.0" fill="#FFFFFF" />
    <circle cx="574.643" cy="606.889" r="8.0" fill="#FFFFFF" />
    <circle cx="401.440" cy="484.278" r="8.0" fill="#FFFFFF" />
    <circle cx="612.496" cy="457.626" r="8.0" fill="#FFFFFF" />
    <circle cx="474.535" cy="620.242" r="8.0" fill="#FFFFFF" />
    <circle cx="466.398" cy="406.622" r="8.0" fill="#FFFFFF" />
    <circle cx="617.061" cy="559.012" r="8.0" fill="#FFFFFF" />
    <circle cx="402.511" cy="548.390" r="8.0" fill="#FFFFFF" />
    <circle cx="568.287" cy="410.966" r="8.0" fill="#FFFFFF" />
    <circle cx="538.807" cy="624.789" r="8.0" fill="#FFFFFF" />
    <circle cx="415.817" cy="446.786" r="8.0" fill="#FFFFFF" />
    <circle cx="627.246" cy="495.076" r="8.0" fill="#FFFFFF" />
    <circle cx="438.280" cy="602.539" r="8.0" fill="#FFFFFF" />
    <circle cx="505.185" cy="395.169" r="8.0" fill="#FFFFFF" />
    <circle cx="596.140" cy="593.734" r="8.0" fill="#FFFFFF" />
    <circle cx="394.475" cy="508.559" r="8.0" fill="#FFFFFF" />
    <circle cx="601.189" cy="434.972" r="8.0" fill="#FFFFFF" />
    <circle cx="498.234" cy="629.314" r="8.0" fill="#FFFFFF" />
    <circle cx="442.748" cy="415.978" r="8.0" fill="#FFFFFF" />
    <circle cx="628.190" cy="536.079" r="8.0" fill="#FFFFFF" />
    <circle cx="409.828" cy="572.868" r="8.0" fill="#FFFFFF" />
    <circle cx="546.300" cy="397.844" r="8.0" fill="#FFFFFF" />
    <circle cx="563.936" cy="619.585" r="8.0" fill="#FFFFFF" />
    <circle cx="400.782" cy="467.653" r="8.0" fill="#FFFFFF" />
    <circle cx="624.214" cy="469.479" r="8.0" fill="#FFFFFF" />
    <circle cx="457.860" cy="619.391" r="8.0" fill="#FFFFFF" />
    <circle cx="479.308" cy="395.986" r="8.0" fill="#FFFFFF" />
    <circle cx="614.698" cy="575.601" r="8.0" fill="#FFFFFF" />
    <circle cx="393.052" cy="534.523" r="8.0" fill="#FFFFFF" />
    <circle cx="584.653" cy="414.832" r="8.0" fill="#FFFFFF" />
    <circle cx="524.090" cy="632.987" r="8.0" fill="#FFFFFF" />
    <circle cx="421.164" cy="430.779" r="8.0" fill="#FFFFFF" />
    <circle cx="634.106" cy="510.527" r="8.0" fill="#FFFFFF" />
    <circle cx="422.767" cy="595.746" r="8.0" fill="#FFFFFF" />
    <circle cx="521.248" cy="389.711" r="8.0" fill="#FFFFFF" />
    <circle cx="587.947" cy="608.623" r="8.0" fill="#FFFFFF" />
    <circle cx="390.474" cy="492.012" r="8.0" fill="#FFFFFF" />
    <circle cx="615.328" cy="444.507" r="8.0" fill="#FFFFFF" />
    <circle cx="481.336" cy="631.815" r="8.0" fill="#FFFFFF" />
    <circle cx="453.555" cy="402.711" r="8.0" fill="#FFFFFF" />
    <circle cx="629.163" cy="553.193" r="8.0" fill="#FFFFFF" />
    <circle cx="397.545" cy="560.869" r="8.0" fill="#FFFFFF" />
    <circle cx="563.491" cy="398.419" r="8.0" fill="#FFFFFF" />
    <circle cx="550.835" cy="630.776" r="8.0" fill="#FFFFFF" />
    <circle cx="402.909" cy="450.525" r="8.0" fill="#FFFFFF" />
    <circle cx="634.215" cy="483.582" r="8.0" fill="#FFFFFF" />
    <circle cx="440.935" cy="615.719" r="8.0" fill="#FFFFFF" />
    <circle cx="494.304" cy="387.265" r="8.0" fill="#FFFFFF" />
    <circle cx="609.502" cy="592.184" r="8.0" fill="#FFFFFF" />
    <circle cx="385.689" cy="518.750" r="8.0" fill="#FFFFFF" />
    <circle cx="600.755" cy="421.521" r="8.0" fill="#FFFFFF" />
    <circle cx="507.664" cy="638.922" r="8.0" fill="#FFFFFF" />
    <circle cx="429.299" cy="415.292" r="8.0" fill="#FFFFFF" />
    <circle cx="638.556" cy="527.477" r="8.0" fill="#FFFFFF" />
    <circle cx="408.023" cy="586.221" r="8.0" fill="#FFFFFF" />
    <circle cx="538.586" cy="386.791" r="8.0" fill="#FFFFFF" />
    <circle cx="577.101" cy="622.498" r="8.0" fill="#FFFFFF" />
    <circle cx="389.118" cy="474.424" r="8.0" fill="#FFFFFF" />
    <circle cx="628.216" cy="456.595" r="8.0" fill="#FFFFFF" />
    <circle cx="463.638" cy="631.587" r="8.0" fill="#FFFFFF" />
    <circle cx="466.794" cy="390.920" r="8.0" fill="#FFFFFF" />
    <circle cx="627.343" cy="570.857" r="8.0" fill="#FFFFFF" />
    <circle cx="386.955" cy="546.579" r="8.0" fill="#FFFFFF" />
    <circle cx="580.977" cy="401.827" r="8.0" fill="#FFFFFF" />
    <circle cx="535.604" cy="640.074" r="8.0" fill="#FFFFFF" />
    <circle cx="407.887" cy="433.359" r="8.0" fill="#FFFFFF" />
    <circle cx="642.135" cy="499.637" r="8.0" fill="#FFFFFF" />
    <circle cx="424.230" cy="609.203" r="8.0" fill="#FFFFFF" />
    <circle cx="511.058" cy="380.794" r="8.0" fill="#FFFFFF" />
    <circle cx="601.489" cy="608.289" r="8.0" fill="#FFFFFF" />
    <circle cx="380.728" cy="501.429" r="8.0" fill="#FFFFFF" />
    <circle cx="616.128" cy="430.973" r="8.0" fill="#FFFFFF" />
    <circle cx="489.912" cy="642.323" r="8.0" fill="#FFFFFF" />
    <circle cx="440.124" cy="400.780" r="8.0" fill="#FFFFFF" />
    <circle cx="640.361" cy="545.519" r="8.0" fill="#FFFFFF" />
    <circle cx="394.496" cy="574.103" r="8.0" fill="#FFFFFF" />
    <circle cx="556.775" cy="386.608" r="8.0" fill="#FFFFFF" />
    <circle cx="563.779" cy="634.927" r="8.0" fill="#FFFFFF" />
    <circle cx="390.566" cy="456.234" r="8.0" fill="#FFFFFF" />
    <circle cx="639.439" cy="471.020" r="8.0" fill="#FFFFFF" />
    <circle cx="445.594" cy="628.509" r="8.0" fill="#FFFFFF" />
    <circle cx="482.212" cy="381.001" r="8.0" fill="#FFFFFF" />
    <circle cx="622.649" cy="588.609" r="8.0" fill="#FFFFFF" />
    <circle cx="378.427" cy="530.285" r="8.0" fill="#FFFFFF" />
    <circle cx="598.292" cy="408.108" r="8.0" fill="#FFFFFF" />
    <circle cx="518.561" cy="647.133" r="8.0" fill="#FFFFFF" />
    <circle cx="415.713" cy="416.622" r="8.0" fill="#FFFFFF" />
    <circle cx="647.661" cy="517.297" r="8.0" fill="#FFFFFF" />
    <circle cx="408.210" cy="599.884" r="8.0" fill="#FFFFFF" />
    <circle cx="529.196" cy="376.855" r="8.0" fill="#FFFFFF" />
    <circle cx="590.745" cy="623.460" r="8.0" fill="#FFFFFF" />
    <circle cx="378.417" cy="482.955" r="8.0" fill="#FFFFFF" />
    <circle cx="630.322" cy="443.066" r="8.0" fill="#FFFFFF" />
    <circle cx="471.248" cy="642.978" r="8.0" fill="#FFFFFF" />
    <circle cx="453.475" cy="387.682" r="8.0" fill="#FFFFFF" />
    <circle cx="639.345" cy="564.223" r="8.0" fill="#FFFFFF" />
    <circle cx="382.606" cy="559.593" r="8.0" fill="#FFFFFF" />
    <circle cx="575.369" cy="389.296" r="8.0" fill="#FFFFFF" />
    <circle cx="548.219" cy="645.507" r="8.0" fill="#FFFFFF" />
    <circle cx="394.915" cy="437.898" r="8.0" fill="#FFFFFF" />
    <circle cx="648.617" cy="487.510" r="8.0" fill="#FFFFFF" />
    <circle cx="427.666" cy="622.525" r="8.0" fill="#FFFFFF" />
    <circle cx="499.506" cy="373.306" r="8.0" fill="#FFFFFF" />
    <circle cx="615.068" cy="605.983" r="8.0" fill="#FFFFFF" />
    <circle cx="372.286" cy="512.322" r="8.0" fill="#FFFFFF" />
    <circle cx="614.972" cy="417.233" r="8.0" fill="#FFFFFF" />
    <circle cx="500.067" cy="651.662" r="8.0" fill="#FFFFFF" />
    <circle cx="426.319" cy="400.776" r="8.0" fill="#FFFFFF" />
    <circle cx="650.534" cy="536.176" r="8.0" fill="#FFFFFF" />
    <circle cx="393.328" cy="587.874" r="8.0" fill="#FFFFFF" />
    <circle cx="548.311" cy="375.671" r="8.0" fill="#FFFFFF" />
    <circle cx="577.419" cy="637.253" r="8.0" fill="#FFFFFF" />
    <circle cx="378.942" cy="463.755" r="8.0" fill="#FFFFFF" />
    <circle cx="642.911" cy="457.609" r="8.0" fill="#FFFFFF" />
    <circle cx="452.116" cy="640.740" r="8.0" fill="#FFFFFF" />
    <circle cx="469.126" cy="376.406" r="8.0" fill="#FFFFFF" />
    <circle cx="635.401" cy="583.134" r="8.0" fill="#FFFFFF" />
    <circle cx="372.738" cy="542.953" r="8.0" fill="#FFFFFF" />
    <circle cx="593.908" cy="394.923" r="8.0" fill="#FFFFFF" />
    <circle cx="530.718" cy="653.879" r="8.0" fill="#FFFFFF" />
    <circle cx="402.189" cy="419.883" r="8.0" fill="#FFFFFF" />
    <circle cx="655.418" cy="505.738" r="8.0" fill="#FFFFFF" />
    <circle cx="410.320" cy="613.652" r="8.0" fill="#FFFFFF" />
    <circle cx="518.320" cy="368.139" r="8.0" fill="#FFFFFF" />
    <circle cx="604.659" cy="622.518" r="8.0" fill="#FFFFFF" />
    <circle cx="368.802" cy="493.069" r="8.0" fill="#FFFFFF" />
    <circle cx="630.559" cy="429.104" r="8.0" fill="#FFFFFF" />
    <circle cx="480.526" cy="653.426" r="8.0" fill="#FFFFFF" />
    <circle cx="439.566" cy="386.265" r="8.0" fill="#FFFFFF" />
    <circle cx="650.554" cy="555.851" r="8.0" fill="#FFFFFF" />
    <circle cx="380.014" cy="573.350" r="8.0" fill="#FFFFFF" />
    <circle cx="567.965" cy="377.405" r="8.0" fill="#FFFFFF" />
    <circle cx="561.726" cy="649.257" r="8.0" fill="#FFFFFF" />
    <circle cx="382.424" cy="444.279" r="8.0" fill="#FFFFFF" />
    <circle cx="653.501" cy="474.352" r="8.0" fill="#FFFFFF" />
    <circle cx="432.975" cy="635.527" r="8.0" fill="#FFFFFF" />
    <circle cx="486.792" cy="367.319" r="8.0" fill="#FFFFFF" />
    <circle cx="628.491" cy="601.788" r="8.0" fill="#FFFFFF" />
    <circle cx="365.236" cy="524.500" r="8.0" fill="#FFFFFF" />
    <circle cx="611.923" cy="403.486" r="8.0" fill="#FFFFFF" />
    <circle cx="511.620" cy="659.729" r="8.0" fill="#FFFFFF" />
    <circle cx="412.345" cy="402.652" r="8.0" fill="#FFFFFF" />
    <circle cx="659.561" cy="525.333" r="8.0" fill="#FFFFFF" />
    <circle cx="394.015" cy="601.975" r="8.0" fill="#FFFFFF" />
    <circle cx="538.259" cy="365.745" r="8.0" fill="#FFFFFF" />
    <circle cx="591.546" cy="637.763" r="8.0" fill="#FFFFFF" />
    <circle cx="368.186" cy="472.942" r="8.0" fill="#FFFFFF" />
    <circle cx="644.618" cy="443.556" r="8.0" fill="#FFFFFF" />
    <circle cx="460.371" cy="652.251" r="8.0" fill="#FFFFFF" />
    <circle cx="455.250" cy="373.510" r="8.0" fill="#FFFFFF" />
    <circle cx="647.587" cy="575.875" r="8.0" fill="#FFFFFF" />
    <circle cx="368.671" cy="556.552" r="8.0" fill="#FFFFFF" />
    <circle cx="587.699" cy="382.148" r="8.0" fill="#FFFFFF" />
    <circle cx="543.941" cy="659.091" r="8.0" fill="#FFFFFF" />
    <circle cx="388.916" cy="424.993" r="8.0" fill="#FFFFFF" />
    <circle cx="661.742" cy="492.988" r="8.0" fill="#FFFFFF" />
    <circle cx="414.291" cy="627.330" r="8.0" fill="#FFFFFF" />
    <circle cx="506.135" cy="360.747" r="8.0" fill="#FFFFFF" />
    <circle cx="618.643" cy="619.718" r="8.0" fill="#FFFFFF" />
    <circle cx="360.391" cy="504.598" r="8.0" fill="#FFFFFF" />
    <circle cx="628.954" cy="414.913" r="8.0" fill="#FFFFFF" />
    <circle cx="491.315" cy="662.798" r="8.0" fill="#FFFFFF" />
    <circle cx="425.270" cy="386.661" r="8.0" fill="#FFFFFF" />
    <circle cx="660.822" cy="545.883" r="8.0" fill="#FFFFFF" />
    <circle cx="379.194" cy="587.647" r="8.0" fill="#FFFFFF" />
    <circle cx="558.892" cy="366.312" r="8.0" fill="#FFFFFF" />
    <circle cx="575.921" cy="651.291" r="8.0" fill="#FFFFFF" />
    <circle cx="370.584" cy="452.388" r="8.0" fill="#FFFFFF" />
    <circle cx="656.739" cy="460.361" r="8.0" fill="#FFFFFF" />
    <circle cx="440.058" cy="648.031" r="8.0" fill="#FFFFFF" />
    <circle cx="473.108" cy="362.898" r="8.0" fill="#FFFFFF" />
    <circle cx="641.569" cy="595.784" r="8.0" fill="#FFFFFF" />
    <circle cx="359.660" cy="537.777" r="8.0" fill="#FFFFFF" />
    <circle cx="607.046" cy="389.925" r="8.0" fill="#FFFFFF" />
    <circle cx="524.393" cy="666.423" r="8.0" fill="#FFFFFF" />
    <circle cx="398.399" cy="406.364" r="8.0" fill="#FFFFFF" />
    <circle cx="667.328" cy="513.158" r="8.0" fill="#FFFFFF" />
    <circle cx="396.531" cy="616.207" r="8.0" fill="#FFFFFF" />
    <circle cx="526.772" cy="356.959" r="8.0" fill="#FFFFFF" />
    <circle cx="605.960" cy="636.465" r="8.0" fill="#FFFFFF" />
    <circle cx="358.440" cy="483.656" r="8.0" fill="#FFFFFF" />
    <circle cx="644.550" cy="429.064" r="8.0" fill="#FFFFFF" />
    <circle cx="470.230" cy="662.888" r="8.0" fill="#FFFFFF" />
    <circle cx="440.784" cy="372.342" r="8.0" fill="#FFFFFF" />
    <circle cx="659.041" cy="566.945" r="8.0" fill="#FFFFFF" />
    <circle cx="366.273" cy="570.887" r="8.0" fill="#FFFFFF" />
    <circle cx="579.765" cy="369.958" r="8.0" fill="#FFFFFF" />
    <circle cx="558.040" cy="662.706" r="8.0" fill="#FFFFFF" />
    <circle cx="376.076" cy="431.870" r="8.0" fill="#FFFFFF" />
    <circle cx="666.551" cy="479.228" r="8.0" fill="#FFFFFF" />
    <circle cx="420.058" cy="640.727" r="8.0" fill="#FFFFFF" />
    <circle cx="492.816" cy="354.774" r="8.0" fill="#FFFFFF" />
    <circle cx="632.503" cy="615.106" r="8.0" fill="#FFFFFF" />
    <circle cx="353.296" cy="517.378" r="8.0" fill="#FFFFFF" />
    <circle cx="625.534" cy="400.690" r="8.0" fill="#FFFFFF" />
    <circle cx="503.461" cy="670.969" r="8.0" fill="#FFFFFF" />
    <circle cx="410.787" cy="388.858" r="8.0" fill="#FFFFFF" />
    <circle cx="670.011" cy="534.460" r="8.0" fill="#FFFFFF" />
    <circle cx="380.150" cy="602.287" r="8.0" fill="#FFFFFF" />
    <circle cx="548.279" cy="356.167" r="8.0" fill="#FFFFFF" />
    <circle cx="590.610" cy="651.587" r="8.0" fill="#FFFFFF" />
    <circle cx="359.556" cy="462.111" r="8.0" fill="#FFFFFF" />
    <circle cx="658.288" cy="445.730" r="8.0" fill="#FFFFFF" />
    <circle cx="448.818" cy="659.865" r="8.0" fill="#FFFFFF" />
    <circle cx="458.641" cy="360.103" r="8.0" fill="#FFFFFF" />
    <circle cx="654.126" cy="588.055" r="8.0" fill="#FFFFFF" />
    <circle cx="355.635" cy="551.973" r="8.0" fill="#FFFFFF" />
    <circle cx="600.406" cy="376.736" r="8.0" fill="#FFFFFF" />
    <circle cx="538.214" cy="671.652" r="8.0" fill="#FFFFFF" />
    <circle cx="384.672" cy="411.863" r="8.0" fill="#FFFFFF" />
    <circle cx="673.727" cy="499.814" r="8.0" fill="#FFFFFF" />
    <circle cx="400.844" cy="630.374" r="8.0" fill="#FFFFFF" />
    <circle cx="514.005" cy="349.433" r="8.0" fill="#FFFFFF" />
    <circle cx="620.465" cy="633.373" r="8.0" fill="#FFFFFF" />
    <circle cx="349.840" cy="495.751" r="8.0" fill="#FFFFFF" />
    <circle cx="642.705" cy="414.326" r="8.0" fill="#FFFFFF" />
    <circle cx="481.563" cy="672.504" r="8.0" fill="#FFFFFF" />
    <circle cx="425.921" cy="372.923" r="8.0" fill="#FFFFFF" />
    <circle cx="669.605" cy="556.459" r="8.0" fill="#FFFFFF" />
    <circle cx="365.581" cy="585.766" r="8.0" fill="#FFFFFF" />
    <circle cx="570.206" cy="358.520" r="8.0" fill="#FFFFFF" />
    <circle cx="572.827" cy="664.670" r="8.0" fill="#FFFFFF" />
    <circle cx="363.846" cy="440.430" r="8.0" fill="#FFFFFF" />
    <circle cx="669.776" cy="464.641" r="8.0" fill="#FFFFFF" />
    <circle cx="427.552" cy="653.664" r="8.0" fill="#FFFFFF" />
    <circle cx="478.537" cy="350.308" r="8.0" fill="#FFFFFF" />
    <circle cx="646.053" cy="608.736" r="8.0" fill="#FFFFFF" />
    <circle cx="347.617" cy="531.244" r="8.0" fill="#FFFFFF" />
    <circle cx="620.338" cy="386.625" r="8.0" fill="#FFFFFF" />
    <circle cx="516.810" cy="677.822" r="8.0" fill="#FFFFFF" />
    <circle cx="396.308" cy="392.839" r="8.0" fill="#FFFFFF" />
    <circle cx="677.992" cy="521.728" r="8.0" fill="#FFFFFF" />
    <circle cx="382.882" cy="617.074" r="8.0" fill="#FFFFFF" />
    <circle cx="536.259" cy="347.114" r="8.0" fill="#FFFFFF" />
    <circle cx="605.599" cy="650.128" r="8.0" fill="#FFFFFF" />
    <circle cx="349.493" cy="473.330" r="8.0" fill="#FFFFFF" />
    <circle cx="658.116" cy="430.649" r="8.0" fill="#FFFFFF" />
    <circle cx="459.150" cy="670.867" r="8.0" fill="#FFFFFF" />
    <circle cx="443.579" cy="358.982" r="8.0" fill="#FFFFFF" />
    <circle cx="665.989" cy="578.689" r="8.0" fill="#FFFFFF" />
    <circle cx="353.226" cy="566.906" r="8.0" fill="#FFFFFF" />
    <circle cx="592.077" cy="364.096" r="8.0" fill="#FFFFFF" />
    <circle cx="552.908" cy="675.336" r="8.0" fill="#FFFFFF" />
    <circle cx="371.346" cy="419.089" r="8.0" fill="#FFFFFF" />
    <circle cx="678.662" cy="485.469" r="8.0" fill="#FFFFFF" />
    <circle cx="406.912" cy="644.290" r="8.0" fill="#FFFFFF" />
    <circle cx="500.115" cy="343.279" r="8.0" fill="#FFFFFF" />
    <circle cx="634.870" cy="628.511" r="8.0" fill="#FFFFFF" />
    <circle cx="342.508" cy="509.083" r="8.0" fill="#FFFFFF" />
    <circle cx="639.090" cy="399.536" r="8.0" fill="#FFFFFF" />
    <circle cx="494.237" cy="680.963" r="8.0" fill="#FFFFFF" />
    <circle cx="410.853" cy="375.262" r="8.0" fill="#FFFFFF" />
    <circle cx="679.132" cy="544.539" r="8.0" fill="#FFFFFF" />
    <circle cx="366.622" cy="601.001" r="8.0" fill="#FFFFFF" />
    <circle cx="559.130" cy="347.992" r="8.0" fill="#FFFFFF" />
    <circle cx="588.118" cy="664.938" r="8.0" fill="#FFFFFF" />
    <circle cx="352.390" cy="450.578" r="8.0" fill="#FFFFFF" />
    <circle cx="671.356" cy="449.408" r="8.0" fill="#FFFFFF" />
    <circle cx="436.694" cy="665.965" r="8.0" fill="#FFFFFF" />
    <circle cx="463.474" cy="347.424" r="8.0" fill="#FFFFFF" />
    <circle cx="659.111" cy="600.670" r="8.0" fill="#FFFFFF" />
    <circle cx="343.447" cy="546.026" r="8.0" fill="#FFFFFF" />
    <circle cx="613.411" cy="372.904" r="8.0" fill="#FFFFFF" />
    <circle cx="531.201" cy="683.252" r="8.0" fill="#FFFFFF" />
    <circle cx="382.022" cy="398.572" r="8.0" fill="#FFFFFF" />
    <circle cx="684.646" cy="507.835" r="8.0" fill="#FFFFFF" />
    <circle cx="387.376" cy="631.820" r="8.0" fill="#FFFFFF" />
    <circle cx="522.968" cy="339.281" r="8.0" fill="#FFFFFF" />
    <circle cx="620.698" cy="646.910" r="8.0" fill="#FFFFFF" />
    <circle cx="340.536" cy="485.918" r="8.0" fill="#FFFFFF" />
    <circle cx="656.203" cy="415.307" r="8.0" fill="#FFFFFF" />
    <circle cx="470.941" cy="680.885" r="8.0" fill="#FFFFFF" />
    <circle cx="428.107" cy="359.573" r="8.0" fill="#FFFFFF" />
    <circle cx="676.997" cy="567.785" r="8.0" fill="#FFFFFF" />
    <circle cx="352.486" cy="582.394" r="8.0" fill="#FFFFFF" />
    <circle cx="582.144" cy="352.176" r="8.0" fill="#FFFFFF" />
    <circle cx="568.297" cy="677.404" r="8.0" fill="#FFFFFF" />
    <circle cx="358.599" cy="427.976" r="8.0" fill="#FFFFFF" />
    <circle cx="682.048" cy="470.292" r="8.0" fill="#FFFFFF" />
    <circle cx="414.684" cy="657.772" r="8.0" fill="#FFFFFF" />
    <circle cx="485.263" cy="338.596" r="8.0" fill="#FFFFFF" />
    <circle cx="648.991" cy="621.916" r="8.0" fill="#FFFFFF" />
    <circle cx="336.558" cy="523.499" r="8.0" fill="#FFFFFF" />
    <circle cx="633.724" cy="384.881" r="8.0" fill="#FFFFFF" />
    <circle cx="508.109" cy="688.139" r="8.0" fill="#FFFFFF" />
    <circle cx="395.770" cy="379.356" r="8.0" fill="#FFFFFF" />
    <circle cx="687.485" cy="531.315" r="8.0" fill="#FFFFFF" />
    <circle cx="369.410" cy="616.403" r="8.0" fill="#FFFFFF" />
    <circle cx="546.654" cy="338.521" r="8.0" fill="#FFFFFF" />
    <circle cx="603.725" cy="663.481" r="8.0" fill="#FFFFFF" />
    <circle cx="341.868" cy="462.211" r="8.0" fill="#FFFFFF" />
    <circle cx="671.244" cy="433.711" r="8.0" fill="#FFFFFF" />
    <circle cx="447.396" cy="677.464" r="8.0" fill="#FFFFFF" />
    <circle cx="447.802" cy="346.185" r="8.0" fill="#FFFFFF" />
    <circle cx="671.505" cy="590.982" r="8.0" fill="#FFFFFF" />
    <circle cx="340.862" cy="561.555" r="8.0" fill="#FFFFFF" />
    <circle cx="604.811" cy="359.704" r="8.0" fill="#FFFFFF" />
    <circle cx="546.473" cy="687.167" r="8.0" fill="#FFFFFF" />
    <circle cx="368.113" cy="406.017" r="8.0" fill="#FFFFFF" />
    <circle cx="689.867" cy="492.935" r="8.0" fill="#FFFFFF" />
    <circle cx="393.607" cy="646.339" r="8.0" fill="#FFFFFF" />
    <circle cx="508.551" cy="332.790" r="8.0" fill="#FFFFFF" />
    <circle cx="635.720" cy="641.943" r="8.0" fill="#FFFFFF" />
    <circle cx="332.819" cy="499.744" r="8.0" fill="#FFFFFF" />
    <circle cx="652.541" cy="399.892" r="8.0" fill="#FFFFFF" />
    <circle cx="484.070" cy="689.775" r="8.0" fill="#FFFFFF" />
    <circle cx="412.411" cy="361.900" r="8.0" fill="#FFFFFF" />
    <circle cx="686.997" cy="555.451" r="8.0" fill="#FFFFFF" />
    <circle cx="353.456" cy="598.255" r="8.0" fill="#FFFFFF" />
    <circle cx="570.699" cy="341.136" r="8.0" fill="#FFFFFF" />
    <circle cx="584.205" cy="677.802" r="8.0" fill="#FFFFFF" />
    <circle cx="346.599" cy="438.444" r="8.0" fill="#FFFFFF" />
    <circle cx="683.815" cy="454.455" r="8.0" fill="#FFFFFF" />
    <circle cx="424.095" cy="670.646" r="8.0" fill="#FFFFFF" />
    <circle cx="469.614" cy="335.468" r="8.0" fill="#FFFFFF" />
    <circle cx="662.646" cy="613.636" r="8.0" fill="#FFFFFF" />
    <circle cx="332.090" cy="538.843" r="8.0" fill="#FFFFFF" />
    <circle cx="626.638" cy="370.543" r="8.0" fill="#FFFFFF" />
    <circle cx="523.032" cy="693.918" r="8.0" fill="#FFFFFF" />
    <circle cx="380.855" cy="385.189" r="8.0" fill="#FFFFFF" />
    <circle cx="694.537" cy="516.924" r="8.0" fill="#FFFFFF" />
    <circle cx="373.945" cy="631.786" r="8.0" fill="#FFFFFF" />
    <circle cx="532.903" cy="330.245" r="8.0" fill="#FFFFFF" />
    <circle cx="619.463" cy="660.282" r="8.0" fill="#FFFFFF" />
    <circle cx="332.426" cy="475.217" r="8.0" fill="#FFFFFF" />
    <circle cx="669.409" cy="417.732" r="8.0" fill="#FFFFFF" />
    <circle cx="459.558" cy="688.005" r="8.0" fill="#FFFFFF" />
    <circle cx="431.703" cy="346.639" r="8.0" fill="#FFFFFF" />
    <circle cx="683.070" cy="579.756" r="8.0" fill="#FFFFFF" />
    <circle cx="339.927" cy="577.657" r="8.0" fill="#FFFFFF" />
    <circle cx="594.609" cy="347.198" r="8.0" fill="#FFFFFF" />
    <circle cx="562.457" cy="689.488" r="8.0" fill="#FFFFFF" />
    <circle cx="354.755" cy="415.118" r="8.0" fill="#FFFFFF" />
    <circle cx="693.560" cy="477.188" r="8.0" fill="#FFFFFF" />
    <circle cx="401.535" cy="660.450" r="8.0" fill="#FFFFFF" />
    <circle cx="493.159" cy="327.747" r="8.0" fill="#FFFFFF" />
    <circle cx="650.482" cy="635.250" r="8.0" fill="#FFFFFF" />
    <circle cx="326.461" cy="514.665" r="8.0" fill="#FFFFFF" />
    <circle cx="647.136" cy="384.586" r="8.0" fill="#FFFFFF" />
    <circle cx="498.409" cy="697.406" r="8.0" fill="#FFFFFF" />
    <circle cx="396.675" cy="365.972" r="8.0" fill="#FFFFFF" />
    <circle cx="695.847" cy="541.803" r="8.0" fill="#FFFFFF" />
    <circle cx="356.161" cy="614.305" r="8.0" fill="#FFFFFF" />
    <circle cx="557.847" cy="331.130" r="8.0" fill="#FFFFFF" />
    <circle cx="600.451" cy="676.488" r="8.0" fill="#FFFFFF" />
    <circle cx="335.507" cy="450.403" r="8.0" fill="#FFFFFF" />
    <circle cx="683.906" cy="438.133" r="8.0" fill="#FFFFFF" />
    <circle cx="435.069" cy="682.744" r="8.0" fill="#FFFFFF" />
    <circle cx="453.337" cy="333.970" r="8.0" fill="#FFFFFF" />
    <circle cx="675.662" cy="603.731" r="8.0" fill="#FFFFFF" />
    <circle cx="329.191" cy="554.952" r="8.0" fill="#FFFFFF" />
    <circle cx="617.880" cy="356.702" r="8.0" fill="#FFFFFF" />
    <circle cx="538.854" cy="698.201" r="8.0" fill="#FFFFFF" />
    <circle cx="366.290" cy="392.733" r="8.0" fill="#FFFFFF" />
    <circle cx="700.175" cy="501.509" r="8.0" fill="#FFFFFF" />
    <circle cx="380.213" cy="646.968" r="8.0" fill="#FFFFFF" />
    <circle cx="518.012" cy="323.289" r="8.0" fill="#FFFFFF" />
    <circle cx="635.150" cy="655.339" r="8.0" fill="#FFFFFF" />
    <circle cx="324.201" cy="489.473" r="8.0" fill="#FFFFFF" />
    <circle cx="665.831" cy="401.656" r="8.0" fill="#FFFFFF" />
    <circle cx="473.071" cy="697.442" r="8.0" fill="#FFFFFF" />
    <circle cx="415.355" cy="348.820" r="8.0" fill="#FFFFFF" />
    <circle cx="693.651" cy="567.090" r="8.0" fill="#FFFFFF" />
    <circle cx="340.692" cy="594.155" r="8.0" fill="#FFFFFF" />
    <circle cx="582.886" cy="335.548" r="8.0" fill="#FFFFFF" />
    <circle cx="578.982" cy="690.150" r="8.0" fill="#FFFFFF" />
    <circle cx="342.121" cy="425.807" r="8.0" fill="#FFFFFF" />
    <circle cx="695.647" cy="460.759" r="8.0" fill="#FFFFFF" />
    <circle cx="411.108" cy="673.978" r="8.0" fill="#FFFFFF" />
    <circle cx="476.949" cy="324.246" r="8.0" fill="#FFFFFF" />
    <circle cx="664.805" cy="626.868" r="8.0" fill="#FFFFFF" />
    <circle cx="321.568" cy="530.534" r="8.0" fill="#FFFFFF" />
    <circle cx="640.011" cy="369.574" r="8.0" fill="#FFFFFF" />
    <circle cx="513.818" cy="703.658" r="8.0" fill="#FFFFFF" />
    <circle cx="381.083" cy="371.784" r="8.0" fill="#FFFFFF" />
    <circle cx="703.415" cy="526.971" r="8.0" fill="#FFFFFF" />
    <circle cx="360.612" cy="630.363" r="8.0" fill="#FFFFFF" />
    <circle cx="543.703" cy="322.298" r="8.0" fill="#FFFFFF" />
    <circle cx="616.856" cy="673.435" r="8.0" fill="#FFFFFF" />
    <circle cx="325.474" cy="463.750" r="8.0" fill="#FFFFFF" />
    <circle cx="682.277" cy="421.504" r="8.0" fill="#FFFFFF" />
    <circle cx="447.517" cy="693.906" r="8.0" fill="#FFFFFF" />
    <circle cx="436.607" cy="334.158" r="8.0" fill="#FFFFFF" />
    <circle cx="687.874" cy="592.277" r="8.0" fill="#FFFFFF" />
    <circle cx="327.932" cy="571.658" r="8.0" fill="#FFFFFF" />
    <circle cx="607.509" cy="343.530" r="8.0" fill="#FFFFFF" />
    <circle cx="555.412" cy="700.901" r="8.0" fill="#FFFFFF" />
    <circle cx="352.253" cy="401.941" r="8.0" fill="#FFFFFF" />
    <circle cx="704.299" cy="485.224" r="8.0" fill="#FFFFFF" />
    <circle cx="388.186" cy="661.767" r="8.0" fill="#FFFFFF" />
    <circle cx="502.122" cy="317.767" r="8.0" fill="#FFFFFF" />
    <circle cx="650.604" cy="648.664" r="8.0" fill="#FFFFFF" />
    <circle cx="317.319" cy="504.847" r="8.0" fill="#FFFFFF" />
    <circle cx="660.509" cy="385.662" r="8.0" fill="#FFFFFF" />
    <circle cx="487.814" cy="705.636" r="8.0" fill="#FFFFFF" />
    <circle cx="398.940" cy="352.748" r="8.0" fill="#FFFFFF" />
    <circle cx="703.101" cy="553.091" r="8.0" fill="#FFFFFF" />
    <circle cx="343.190" cy="610.870" r="8.0" fill="#FFFFFF" />
    <circle cx="569.737" cy="324.911" r="8.0" fill="#FFFFFF" />
    <circle cx="595.873" cy="689.102" r="8.0" fill="#FFFFFF" />
    <circle cx="330.372" cy="438.004" r="8.0" fill="#FFFFFF" />
    <circle cx="696.063" cy="443.818" r="8.0" fill="#FFFFFF" />
    <circle cx="422.260" cy="686.753" r="8.0" fill="#FFFFFF" />
    <circle cx="460.085" cy="322.367" r="8.0" fill="#FFFFFF" />
    <circle cx="678.514" cy="616.848" r="8.0" fill="#FFFFFF" />
    <circle cx="318.234" cy="547.196" r="8.0" fill="#FFFFFF" />
    <circle cx="631.201" cy="355.031" r="8.0" fill="#FFFFFF" />
    <circle cx="530.151" cy="708.424" r="8.0" fill="#FFFFFF" />
    <circle cx="365.813" cy="379.314" r="8.0" fill="#FFFFFF" />
    <circle cx="709.583" cy="511.090" r="8.0" fill="#FFFFFF" />
    <circle cx="366.804" cy="646.247" r="8.0" fill="#FFFFFF" />
    <circle cx="528.394" cy="314.771" r="8.0" fill="#FFFFFF" />
    <circle cx="633.237" cy="668.632" r="8.0" fill="#FFFFFF" />
    <circle cx="316.641" cy="478.371" r="8.0" fill="#FFFFFF" />
    <circle cx="678.903" cy="404.747" r="8.0" fill="#FFFFFF" />
    <circle cx="461.338" cy="703.983" r="8.0" fill="#FFFFFF" />
    <circle cx="419.599" cy="336.074" r="8.0" fill="#FFFFFF" />
    <circle cx="699.122" cy="579.361" r="8.0" fill="#FFFFFF" />
    <circle cx="328.372" cy="588.791" r="8.0" fill="#FFFFFF" />
    <circle cx="595.597" cy="331.192" r="8.0" fill="#FFFFFF" />
    <circle cx="572.541" cy="701.944" r="8.0" fill="#FFFFFF" />
    <circle cx="338.915" cy="412.756" r="8.0" fill="#FFFFFF" />
    <circle cx="706.823" cy="468.227" r="8.0" fill="#FFFFFF" />
    <circle cx="397.820" cy="676.009" r="8.0" fill="#FFFFFF" />
    <circle cx="485.384" cy="313.779" r="8.0" fill="#FFFFFF" />
    <circle cx="665.645" cy="640.286" r="8.0" fill="#FFFFFF" />
    <circle cx="311.892" cy="521.199" r="8.0" fill="#FFFFFF" />
    <circle cx="653.453" cy="369.933" r="8.0" fill="#FFFFFF" />
    <circle cx="503.656" cy="712.465" r="8.0" fill="#FFFFFF" />
    <circle cx="382.638" cy="358.425" r="8.0" fill="#FFFFFF" />
    <circle cx="711.284" cy="537.879" r="8.0" fill="#FFFFFF" />
    <circle cx="347.442" cy="627.624" r="8.0" fill="#FFFFFF" />
    <circle cx="555.271" cy="315.430" r="8.0" fill="#FFFFFF" />
    <circle cx="612.954" cy="686.311" r="8.0" fill="#FFFFFF" />
    <circle cx="319.663" cy="451.614" r="8.0" fill="#FFFFFF" />
    <circle cx="694.757" cy="426.538" r="8.0" fill="#FFFFFF" />
    <circle cx="434.909" cy="698.614" r="8.0" fill="#FFFFFF" />
    <circle cx="442.734" cy="322.173" r="8.0" fill="#FFFFFF" />
    <circle cx="691.441" cy="605.257" r="8.0" fill="#FFFFFF" />
    <circle cx="316.539" cy="564.487" r="8.0" fill="#FFFFFF" />
    <circle cx="620.757" cy="341.132" r="8.0" fill="#FFFFFF" />
    <circle cx="547.253" cy="711.613" r="8.0" fill="#FFFFFF" />
    <circle cx="351.044" cy="388.529" r="8.0" fill="#FFFFFF" />
    <circle cx="714.245" cy="494.306" r="8.0" fill="#FFFFFF" />
    <circle cx="374.717" cy="661.777" r="8.0" fill="#FFFFFF" />
    <circle cx="512.055" cy="308.668" r="8.0" fill="#FFFFFF" />
    <circle cx="649.414" cy="662.084" r="8.0" fill="#FFFFFF" />
    <circle cx="309.138" cy="494.141" r="8.0" fill="#FFFFFF" />
    <circle cx="673.773" cy="388.042" r="8.0" fill="#FFFFFF" />
    <circle cx="476.419" cy="712.833" r="8.0" fill="#FFFFFF" />
    <circle cx="402.491" cy="339.745" r="8.0" fill="#FFFFFF" />
    <circle cx="709.256" cy="565.084" r="8.0" fill="#FFFFFF" />
    <circle cx="330.552" cy="606.174" r="8.0" fill="#FFFFFF" />
    <circle cx="582.234" cy="319.846" r="8.0" fill="#FFFFFF" />
    <circle cx="590.070" cy="701.275" r="8.0" fill="#FFFFFF" />
    <circle cx="326.439" cy="425.104" r="8.0" fill="#FFFFFF" />
    <circle cx="707.674" cy="450.683" r="8.0" fill="#FFFFFF" />
    <circle cx="409.057" cy="689.524" r="8.0" fill="#FFFFFF" />
    <circle cx="467.958" cy="311.410" r="8.0" fill="#FFFFFF" />
    <circle cx="680.099" cy="630.248" r="8.0" fill="#FFFFFF" />
    <circle cx="308.019" cy="538.377" r="8.0" fill="#FFFFFF" />
    <circle cx="644.692" cy="354.645" r="8.0" fill="#FFFFFF" />
    <circle cx="520.455" cy="717.817" r="8.0" fill="#FFFFFF" />
    <circle cx="366.629" cy="365.838" r="8.0" fill="#FFFFFF" />
    <circle cx="718.078" cy="521.585" r="8.0" fill="#FFFFFF" />
    <circle cx="353.451" cy="644.235" r="8.0" fill="#FFFFFF" />
    <circle cx="539.607" cy="307.242" r="8.0" fill="#FFFFFF" />
    <circle cx="630.044" cy="681.757" r="8.0" fill="#FFFFFF" />
    <circle cx="310.137" cy="466.530" r="8.0" fill="#FFFFFF" />
    <circle cx="691.696" cy="409.095" r="8.0" fill="#FFFFFF" />
    <circle cx="448.962" cy="709.409" r="8.0" fill="#FFFFFF" />
    <circle cx="425.070" cy="323.715" r="8.0" fill="#FFFFFF" />
    <circle cx="703.426" cy="592.174" r="8.0" fill="#FFFFFF" />
    <circle cx="316.546" cy="582.241" r="8.0" fill="#FFFFFF" />
    <circle cx="608.746" cy="328.043" r="8.0" fill="#FFFFFF" />
    <circle cx="564.962" cy="713.144" r="8.0" fill="#FFFFFF" />
    <circle cx="336.947" cy="399.375" r="8.0" fill="#FFFFFF" />
    <circle cx="717.307" cy="476.773" r="8.0" fill="#FFFFFF" />
    <circle cx="384.314" cy="676.779" r="8.0" fill="#FFFFFF" />
    <circle cx="494.832" cy="304.093" r="8.0" fill="#FFFFFF" />
    <circle cx="665.211" cy="653.812" r="8.0" fill="#FFFFFF" />
    <circle cx="303.082" cy="510.924" r="8.0" fill="#FFFFFF" />
    <circle cx="666.890" cy="371.568" r="8.0" fill="#FFFFFF" />
    <circle cx="492.635" cy="720.329" r="8.0" fill="#FFFFFF" />
    <circle cx="385.463" cy="345.182" r="8.0" fill="#FFFFFF" />
    <circle cx="718.139" cy="549.559" r="8.0" fill="#FFFFFF" />
    <circle cx="334.499" cy="623.631" r="8.0" fill="#FFFFFF" />
    <circle cx="567.518" cy="309.639" r="8.0" fill="#FFFFFF" />
    <circle cx="607.825" cy="698.852" r="8.0" fill="#FFFFFF" />
    <circle cx="314.982" cy="438.897" r="8.0" fill="#FFFFFF" />
    <circle cx="706.796" cy="432.763" r="8.0" fill="#FFFFFF" />
    <circle cx="421.822" cy="702.147" r="8.0" fill="#FFFFFF" />
    <circle cx="450.007" cy="310.732" r="8.0" fill="#FFFFFF" />
    <circle cx="693.798" cy="618.610" r="8.0" fill="#FFFFFF" />
    <circle cx="305.786" cy="556.223" r="8.0" fill="#FFFFFF" />
    <circle cx="634.271" cy="339.972" r="8.0" fill="#FFFFFF" />
    <circle cx="538.063" cy="721.592" r="8.0" fill="#FFFFFF" />
    <circle cx="351.089" cy="374.961" r="8.0" fill="#FFFFFF" />
    <circle cx="723.370" cy="504.349" r="8.0" fill="#FFFFFF" />
  </g>
</svg>
